<svg width="1018" height="52" viewBox="0 0 1018 52" fill="none" xmlns="http://www.w3.org/2000/svg">
<g clip-path="url(#clip0_185_3)">
<path fill-rule="evenodd" clip-rule="evenodd" d="M66.7543 11.9568L62.887 8.10022C61.8201 7.03463 60.088 7.03463 59.0197 8.10022L53.2187 15.8134C52.3332 17.1182 52.1518 18.6043 53.2187 19.6699L55.5864 22.0309C53.8315 24.3824 51.7245 26.9463 49.3528 29.3113C46.6706 31.9854 43.6875 34.4162 41.0054 36.413L38.717 34.1327C37.6501 33.0671 36.1598 33.2472 34.8497 34.1327L27.1151 39.9175C25.8184 40.8111 26.0468 42.7085 27.1151 43.7741L30.9824 47.6293C33.1189 49.7605 35.8965 49.0779 38.717 47.6293C38.717 47.6293 47.2538 42.851 54.5625 35.5625C61.4371 28.7066 66.7543 19.6699 66.7543 19.6699C67.8629 16.629 68.8909 14.0867 66.7543 11.9568Z" fill="black"/>
</g>
<path d="M97.1904 27.625C97.1904 24.7583 97.7404 22.5 98.8404 20.85C99.9571 19.2 101.749 18.375 104.215 18.375C106.682 18.375 108.465 19.2 109.565 20.85C110.682 22.5 111.24 24.7583 111.24 27.625C111.24 30.525 110.682 32.8 109.565 34.45C108.465 36.1 106.682 36.925 104.215 36.925C101.749 36.925 99.9571 36.1 98.8404 34.45C97.7404 32.8 97.1904 30.525 97.1904 27.625ZM107.04 27.625C107.04 25.9417 106.857 24.65 106.49 23.75C106.124 22.8333 105.365 22.375 104.215 22.375C103.065 22.375 102.307 22.8333 101.94 23.75C101.574 24.65 101.39 25.9417 101.39 27.625C101.39 28.7583 101.457 29.7 101.59 30.45C101.724 31.1833 101.99 31.7833 102.39 32.25C102.807 32.7 103.415 32.925 104.215 32.925C105.015 32.925 105.615 32.7 106.015 32.25C106.432 31.7833 106.707 31.1833 106.84 30.45C106.974 29.7 107.04 28.7583 107.04 27.625ZM125.149 21.95L118.874 37H114.499L120.849 22.425H113.074V18.775H125.149V21.95ZM135.176 27.2C133.609 26.3667 132.826 25.0583 132.826 23.275C132.826 22.375 133.059 21.5583 133.526 20.825C133.992 20.075 134.701 19.4833 135.651 19.05C136.601 18.6 137.767 18.375 139.151 18.375C140.534 18.375 141.692 18.6 142.626 19.05C143.576 19.4833 144.284 20.075 144.751 20.825C145.217 21.5583 145.451 22.375 145.451 23.275C145.451 24.175 145.234 24.9583 144.801 25.625C144.384 26.2917 143.817 26.8167 143.101 27.2C144.001 27.6333 144.692 28.2333 145.176 29C145.659 29.75 145.901 30.6333 145.901 31.65C145.901 32.8333 145.601 33.8583 145.001 34.725C144.401 35.575 143.584 36.225 142.551 36.675C141.534 37.125 140.401 37.35 139.151 37.35C137.901 37.35 136.759 37.125 135.726 36.675C134.709 36.225 133.901 35.575 133.301 34.725C132.701 33.8583 132.401 32.8333 132.401 31.65C132.401 30.6167 132.642 29.725 133.126 28.975C133.609 28.2083 134.292 27.6167 135.176 27.2ZM141.301 23.925C141.301 23.2417 141.101 22.7167 140.701 22.35C140.317 21.9667 139.801 21.775 139.151 21.775C138.501 21.775 137.976 21.9667 137.576 22.35C137.192 22.7333 137.001 23.2667 137.001 23.95C137.001 24.6 137.201 25.1167 137.601 25.5C138.001 25.8667 138.517 26.05 139.151 26.05C139.784 26.05 140.301 25.8583 140.701 25.475C141.101 25.0917 141.301 24.575 141.301 23.925ZM139.151 29.05C138.367 29.05 137.734 29.2667 137.251 29.7C136.767 30.1167 136.526 30.7 136.526 31.45C136.526 32.15 136.759 32.725 137.226 33.175C137.709 33.625 138.351 33.85 139.151 33.85C139.951 33.85 140.576 33.625 141.026 33.175C141.492 32.725 141.726 32.15 141.726 31.45C141.726 30.7167 141.484 30.1333 141.001 29.7C140.534 29.2667 139.917 29.05 139.151 29.05ZM147.937 22.725V18.75H154.862V37H150.412V22.725H147.937ZM166.084 27.2C164.517 26.3667 163.734 25.0583 163.734 23.275C163.734 22.375 163.967 21.5583 164.434 20.825C164.901 20.075 165.609 19.4833 166.559 19.05C167.509 18.6 168.676 18.375 170.059 18.375C171.442 18.375 172.601 18.6 173.534 19.05C174.484 19.4833 175.192 20.075 175.659 20.825C176.126 21.5583 176.359 22.375 176.359 23.275C176.359 24.175 176.142 24.9583 175.709 25.625C175.292 26.2917 174.726 26.8167 174.009 27.2C174.909 27.6333 175.601 28.2333 176.084 29C176.567 29.75 176.809 30.6333 176.809 31.65C176.809 32.8333 176.509 33.8583 175.909 34.725C175.309 35.575 174.492 36.225 173.459 36.675C172.442 37.125 171.309 37.35 170.059 37.35C168.809 37.35 167.667 37.125 166.634 36.675C165.617 36.225 164.809 35.575 164.209 34.725C163.609 33.8583 163.309 32.8333 163.309 31.65C163.309 30.6167 163.551 29.725 164.034 28.975C164.517 28.2083 165.201 27.6167 166.084 27.2ZM172.209 23.925C172.209 23.2417 172.009 22.7167 171.609 22.35C171.226 21.9667 170.709 21.775 170.059 21.775C169.409 21.775 168.884 21.9667 168.484 22.35C168.101 22.7333 167.909 23.2667 167.909 23.95C167.909 24.6 168.109 25.1167 168.509 25.5C168.909 25.8667 169.426 26.05 170.059 26.05C170.692 26.05 171.209 25.8583 171.609 25.475C172.009 25.0917 172.209 24.575 172.209 23.925ZM170.059 29.05C169.276 29.05 168.642 29.2667 168.159 29.7C167.676 30.1167 167.434 30.7 167.434 31.45C167.434 32.15 167.667 32.725 168.134 33.175C168.617 33.625 169.259 33.85 170.059 33.85C170.859 33.85 171.484 33.625 171.934 33.175C172.401 32.725 172.634 32.15 172.634 31.45C172.634 30.7167 172.392 30.1333 171.909 29.7C171.442 29.2667 170.826 29.05 170.059 29.05ZM182.295 27.2C180.728 26.3667 179.945 25.0583 179.945 23.275C179.945 22.375 180.178 21.5583 180.645 20.825C181.112 20.075 181.82 19.4833 182.77 19.05C183.72 18.6 184.887 18.375 186.27 18.375C187.653 18.375 188.812 18.6 189.745 19.05C190.695 19.4833 191.403 20.075 191.87 20.825C192.337 21.5583 192.57 22.375 192.57 23.275C192.57 24.175 192.353 24.9583 191.92 25.625C191.503 26.2917 190.937 26.8167 190.22 27.2C191.12 27.6333 191.812 28.2333 192.295 29C192.778 29.75 193.02 30.6333 193.02 31.65C193.02 32.8333 192.72 33.8583 192.12 34.725C191.52 35.575 190.703 36.225 189.67 36.675C188.653 37.125 187.52 37.35 186.27 37.35C185.02 37.35 183.878 37.125 182.845 36.675C181.828 36.225 181.02 35.575 180.42 34.725C179.82 33.8583 179.52 32.8333 179.52 31.65C179.52 30.6167 179.762 29.725 180.245 28.975C180.728 28.2083 181.412 27.6167 182.295 27.2ZM188.42 23.925C188.42 23.2417 188.22 22.7167 187.82 22.35C187.437 21.9667 186.92 21.775 186.27 21.775C185.62 21.775 185.095 21.9667 184.695 22.35C184.312 22.7333 184.12 23.2667 184.12 23.95C184.12 24.6 184.32 25.1167 184.72 25.5C185.12 25.8667 185.637 26.05 186.27 26.05C186.903 26.05 187.42 25.8583 187.82 25.475C188.22 25.0917 188.42 24.575 188.42 23.925ZM186.27 29.05C185.487 29.05 184.853 29.2667 184.37 29.7C183.887 30.1167 183.645 30.7 183.645 31.45C183.645 32.15 183.878 32.725 184.345 33.175C184.828 33.625 185.47 33.85 186.27 33.85C187.07 33.85 187.695 33.625 188.145 33.175C188.612 32.725 188.845 32.15 188.845 31.45C188.845 30.7167 188.603 30.1333 188.12 29.7C187.653 29.2667 187.037 29.05 186.27 29.05ZM213.654 22.475H205.854V25.925C206.187 25.5583 206.654 25.2583 207.254 25.025C207.854 24.7917 208.504 24.675 209.204 24.675C210.454 24.675 211.487 24.9583 212.304 25.525C213.137 26.0917 213.745 26.825 214.129 27.725C214.512 28.625 214.704 29.6 214.704 30.65C214.704 32.6 214.154 34.15 213.054 35.3C211.954 36.4333 210.404 37 208.404 37C207.07 37 205.912 36.775 204.929 36.325C203.945 35.8583 203.187 35.2167 202.654 34.4C202.12 33.5833 201.829 32.6417 201.779 31.575H205.954C206.054 32.0917 206.295 32.525 206.679 32.875C207.062 33.2083 207.587 33.375 208.254 33.375C209.037 33.375 209.62 33.125 210.004 32.625C210.387 32.125 210.579 31.4583 210.579 30.625C210.579 29.8083 210.379 29.1833 209.979 28.75C209.579 28.3167 208.995 28.1 208.229 28.1C207.662 28.1 207.195 28.2417 206.829 28.525C206.462 28.7917 206.22 29.15 206.104 29.6H201.979V18.725H213.654V22.475ZM216.613 22.725V18.75H223.538V37H219.088V22.725H216.613ZM236.361 31.65C236.611 32.9667 237.377 33.625 238.661 33.625C239.544 33.625 240.169 33.2333 240.536 32.45C240.902 31.6667 241.086 30.3917 241.086 28.625C240.719 29.1417 240.219 29.5417 239.586 29.825C238.952 30.1083 238.244 30.25 237.461 30.25C236.394 30.25 235.444 30.0333 234.611 29.6C233.777 29.15 233.119 28.4917 232.636 27.625C232.169 26.7417 231.936 25.675 231.936 24.425C231.936 23.1917 232.186 22.1167 232.686 21.2C233.202 20.2833 233.927 19.575 234.861 19.075C235.811 18.575 236.927 18.325 238.211 18.325C240.677 18.325 242.402 19.0917 243.386 20.625C244.369 22.1583 244.861 24.4167 244.861 27.4C244.861 29.5667 244.661 31.3583 244.261 32.775C243.877 34.175 243.219 35.2417 242.286 35.975C241.369 36.7083 240.111 37.075 238.511 37.075C237.244 37.075 236.161 36.825 235.261 36.325C234.377 35.825 233.694 35.1667 233.211 34.35C232.744 33.5333 232.477 32.6333 232.411 31.65H236.361ZM238.436 26.875C239.136 26.875 239.694 26.6667 240.111 26.25C240.527 25.8167 240.736 25.2333 240.736 24.5C240.736 23.7 240.519 23.0833 240.086 22.65C239.652 22.2167 239.069 22 238.336 22C237.602 22 237.019 22.225 236.586 22.675C236.169 23.1083 235.961 23.7083 235.961 24.475C235.961 25.1917 236.169 25.775 236.586 26.225C237.019 26.6583 237.636 26.875 238.436 26.875ZM256.167 23.675C256.033 23.0583 255.8 22.6 255.467 22.3C255.133 21.9833 254.658 21.825 254.042 21.825C253.092 21.825 252.408 22.2417 251.992 23.075C251.575 23.8917 251.358 25.1917 251.342 26.975C251.708 26.3917 252.233 25.9333 252.917 25.6C253.617 25.2667 254.383 25.1 255.217 25.1C256.85 25.1 258.158 25.6167 259.142 26.65C260.142 27.6833 260.642 29.125 260.642 30.975C260.642 32.1917 260.392 33.2583 259.892 34.175C259.408 35.0917 258.692 35.8083 257.742 36.325C256.808 36.8417 255.7 37.1 254.417 37.1C251.85 37.1 250.067 36.3 249.067 34.7C248.067 33.0833 247.567 30.7667 247.567 27.75C247.567 24.5833 248.092 22.2333 249.142 20.7C250.208 19.15 251.908 18.375 254.242 18.375C255.492 18.375 256.542 18.625 257.392 19.125C258.258 19.6083 258.908 20.25 259.342 21.05C259.792 21.85 260.058 22.725 260.142 23.675H256.167ZM254.192 28.475C253.475 28.475 252.875 28.6917 252.392 29.125C251.925 29.5417 251.692 30.1417 251.692 30.925C251.692 31.725 251.908 32.35 252.342 32.8C252.792 33.25 253.425 33.475 254.242 33.475C254.975 33.475 255.55 33.2583 255.967 32.825C256.4 32.375 256.617 31.7667 256.617 31C256.617 30.2167 256.408 29.6 255.992 29.15C255.575 28.7 254.975 28.475 254.192 28.475Z" fill="url(#paint0_linear_185_3)"/>
<path d="M446.232 26.025C446.232 24.575 446.523 23.3083 447.107 22.225C447.707 21.1417 448.532 20.3083 449.582 19.725C450.648 19.1417 451.865 18.85 453.232 18.85C454.982 18.85 456.44 19.3083 457.607 20.225C458.79 21.1417 459.565 22.4333 459.932 24.1H455.382C454.998 23.0333 454.257 22.5 453.157 22.5C452.373 22.5 451.748 22.8083 451.282 23.425C450.815 24.025 450.582 24.8917 450.582 26.025C450.582 27.1583 450.815 28.0333 451.282 28.65C451.748 29.25 452.373 29.55 453.157 29.55C454.257 29.55 454.998 29.0167 455.382 27.95H459.932C459.565 29.5833 458.79 30.8667 457.607 31.8C456.423 32.7333 454.965 33.2 453.232 33.2C451.865 33.2 450.648 32.9083 449.582 32.325C448.532 31.7417 447.707 30.9083 447.107 29.825C446.523 28.7417 446.232 27.475 446.232 26.025ZM468.568 33.2C467.202 33.2 465.968 32.9083 464.868 32.325C463.785 31.7417 462.927 30.9083 462.293 29.825C461.677 28.7417 461.368 27.475 461.368 26.025C461.368 24.5917 461.685 23.3333 462.318 22.25C462.952 21.15 463.818 20.3083 464.918 19.725C466.018 19.1417 467.252 18.85 468.618 18.85C469.985 18.85 471.218 19.1417 472.318 19.725C473.418 20.3083 474.285 21.15 474.918 22.25C475.552 23.3333 475.868 24.5917 475.868 26.025C475.868 27.4583 475.543 28.725 474.893 29.825C474.26 30.9083 473.385 31.7417 472.268 32.325C471.168 32.9083 469.935 33.2 468.568 33.2ZM468.568 29.5C469.385 29.5 470.077 29.2 470.643 28.6C471.227 28 471.518 27.1417 471.518 26.025C471.518 24.9083 471.235 24.05 470.668 23.45C470.118 22.85 469.435 22.55 468.618 22.55C467.785 22.55 467.093 22.85 466.543 23.45C465.993 24.0333 465.718 24.8917 465.718 26.025C465.718 27.1417 465.985 28 466.518 28.6C467.068 29.2 467.752 29.5 468.568 29.5ZM486.636 18.9C488.27 18.9 489.57 19.4333 490.536 20.5C491.52 21.55 492.011 23 492.011 24.85V33H487.761V25.425C487.761 24.4917 487.52 23.7667 487.036 23.25C486.553 22.7333 485.903 22.475 485.086 22.475C484.27 22.475 483.62 22.7333 483.136 23.25C482.653 23.7667 482.411 24.4917 482.411 25.425V33H478.136V19.05H482.411V20.9C482.845 20.2833 483.428 19.8 484.161 19.45C484.895 19.0833 485.72 18.9 486.636 18.9ZM502.757 29.375V33H500.582C499.032 33 497.824 32.625 496.957 31.875C496.09 31.1083 495.657 29.8667 495.657 28.15V22.6H493.957V19.05H495.657V15.65H499.932V19.05H502.732V22.6H499.932V28.2C499.932 28.6167 500.032 28.9167 500.232 29.1C500.432 29.2833 500.765 29.375 501.232 29.375H502.757ZM504.288 26C504.288 24.5667 504.555 23.3083 505.088 22.225C505.638 21.1417 506.38 20.3083 507.313 19.725C508.247 19.1417 509.288 18.85 510.438 18.85C511.422 18.85 512.28 19.05 513.013 19.45C513.763 19.85 514.338 20.375 514.738 21.025V19.05H519.013V33H514.738V31.025C514.322 31.675 513.738 32.2 512.988 32.6C512.255 33 511.397 33.2 510.413 33.2C509.28 33.2 508.247 32.9083 507.313 32.325C506.38 31.725 505.638 30.8833 505.088 29.8C504.555 28.7 504.288 27.4333 504.288 26ZM514.738 26.025C514.738 24.9583 514.438 24.1167 513.838 23.5C513.255 22.8833 512.538 22.575 511.688 22.575C510.838 22.575 510.113 22.8833 509.513 23.5C508.93 24.1 508.638 24.9333 508.638 26C508.638 27.0667 508.93 27.9167 509.513 28.55C510.113 29.1667 510.838 29.475 511.688 29.475C512.538 29.475 513.255 29.1667 513.838 28.55C514.438 27.9333 514.738 27.0917 514.738 26.025ZM521.256 26.025C521.256 24.575 521.548 23.3083 522.131 22.225C522.731 21.1417 523.556 20.3083 524.606 19.725C525.673 19.1417 526.889 18.85 528.256 18.85C530.006 18.85 531.464 19.3083 532.631 20.225C533.814 21.1417 534.589 22.4333 534.956 24.1H530.406C530.023 23.0333 529.281 22.5 528.181 22.5C527.398 22.5 526.773 22.8083 526.306 23.425C525.839 24.025 525.606 24.8917 525.606 26.025C525.606 27.1583 525.839 28.0333 526.306 28.65C526.773 29.25 527.398 29.55 528.181 29.55C529.281 29.55 530.023 29.0167 530.406 27.95H534.956C534.589 29.5833 533.814 30.8667 532.631 31.8C531.448 32.7333 529.989 33.2 528.256 33.2C526.889 33.2 525.673 32.9083 524.606 32.325C523.556 31.7417 522.731 30.9083 522.131 29.825C521.548 28.7417 521.256 27.475 521.256 26.025ZM545.018 29.375V33H542.843C541.293 33 540.085 32.625 539.218 31.875C538.351 31.1083 537.918 29.8667 537.918 28.15V22.6H536.218V19.05H537.918V15.65H542.193V19.05H544.993V22.6H542.193V28.2C542.193 28.6167 542.293 28.9167 542.493 29.1C542.693 29.2833 543.026 29.375 543.493 29.375H545.018ZM549.399 33.2C548.649 33.2 548.032 32.9833 547.549 32.55C547.082 32.1 546.849 31.55 546.849 30.9C546.849 30.2333 547.082 29.675 547.549 29.225C548.032 28.775 548.649 28.55 549.399 28.55C550.132 28.55 550.732 28.775 551.199 29.225C551.682 29.675 551.924 30.2333 551.924 30.9C551.924 31.55 551.682 32.1 551.199 32.55C550.732 32.9833 550.132 33.2 549.399 33.2ZM558.73 14.5V33H554.455V14.5H558.73ZM574.978 25.8C574.978 26.2 574.953 26.6167 574.903 27.05H565.228C565.294 27.9167 565.569 28.5833 566.053 29.05C566.553 29.5 567.161 29.725 567.878 29.725C568.944 29.725 569.686 29.275 570.103 28.375H574.653C574.419 29.2917 573.994 30.1167 573.378 30.85C572.778 31.5833 572.019 32.1583 571.103 32.575C570.186 32.9917 569.161 33.2 568.028 33.2C566.661 33.2 565.444 32.9083 564.378 32.325C563.311 31.7417 562.478 30.9083 561.878 29.825C561.278 28.7417 560.978 27.475 560.978 26.025C560.978 24.575 561.269 23.3083 561.853 22.225C562.453 21.1417 563.286 20.3083 564.353 19.725C565.419 19.1417 566.644 18.85 568.028 18.85C569.378 18.85 570.578 19.1333 571.628 19.7C572.678 20.2667 573.494 21.075 574.078 22.125C574.678 23.175 574.978 24.4 574.978 25.8ZM570.603 24.675C570.603 23.9417 570.353 23.3583 569.853 22.925C569.353 22.4917 568.728 22.275 567.978 22.275C567.261 22.275 566.653 22.4833 566.153 22.9C565.669 23.3167 565.369 23.9083 565.253 24.675H570.603ZM583.508 29L586.533 19.05H591.083L586.133 33H580.858L575.908 19.05H580.483L583.508 29ZM595.033 17.6C594.283 17.6 593.666 17.3833 593.183 16.95C592.716 16.5 592.483 15.95 592.483 15.3C592.483 14.6333 592.716 14.0833 593.183 13.65C593.666 13.2 594.283 12.975 595.033 12.975C595.766 12.975 596.366 13.2 596.833 13.65C597.316 14.0833 597.558 14.6333 597.558 15.3C597.558 15.95 597.316 16.5 596.833 16.95C596.366 17.3833 595.766 17.6 595.033 17.6ZM597.158 19.05V33H592.883V19.05H597.158ZM608.756 18.9C610.389 18.9 611.689 19.4333 612.656 20.5C613.639 21.55 614.131 23 614.131 24.85V33H609.881V25.425C609.881 24.4917 609.639 23.7667 609.156 23.25C608.672 22.7333 608.022 22.475 607.206 22.475C606.389 22.475 605.739 22.7333 605.256 23.25C604.772 23.7667 604.531 24.4917 604.531 25.425V33H600.256V19.05H604.531V20.9C604.964 20.2833 605.547 19.8 606.281 19.45C607.014 19.0833 607.839 18.9 608.756 18.9ZM630.251 25.8C630.251 26.2 630.226 26.6167 630.176 27.05H620.501C620.568 27.9167 620.843 28.5833 621.326 29.05C621.826 29.5 622.435 29.725 623.151 29.725C624.218 29.725 624.96 29.275 625.376 28.375H629.926C629.693 29.2917 629.268 30.1167 628.651 30.85C628.051 31.5833 627.293 32.1583 626.376 32.575C625.46 32.9917 624.435 33.2 623.301 33.2C621.935 33.2 620.718 32.9083 619.651 32.325C618.585 31.7417 617.751 30.9083 617.151 29.825C616.551 28.7417 616.251 27.475 616.251 26.025C616.251 24.575 616.543 23.3083 617.126 22.225C617.726 21.1417 618.56 20.3083 619.626 19.725C620.693 19.1417 621.918 18.85 623.301 18.85C624.651 18.85 625.851 19.1333 626.901 19.7C627.951 20.2667 628.768 21.075 629.351 22.125C629.951 23.175 630.251 24.4 630.251 25.8ZM625.876 24.675C625.876 23.9417 625.626 23.3583 625.126 22.925C624.626 22.4917 624.001 22.275 623.251 22.275C622.535 22.275 621.926 22.4833 621.426 22.9C620.943 23.3167 620.643 23.9083 620.526 24.675H625.876ZM641.007 18.9C642.64 18.9 643.94 19.4333 644.907 20.5C645.89 21.55 646.382 23 646.382 24.85V33H642.132V25.425C642.132 24.4917 641.89 23.7667 641.407 23.25C640.923 22.7333 640.273 22.475 639.457 22.475C638.64 22.475 637.99 22.7333 637.507 23.25C637.023 23.7667 636.782 24.4917 636.782 25.425V33H632.507V19.05H636.782V20.9C637.215 20.2833 637.798 19.8 638.532 19.45C639.265 19.0833 640.09 18.9 641.007 18.9ZM662.502 25.8C662.502 26.2 662.477 26.6167 662.427 27.05H652.752C652.819 27.9167 653.094 28.5833 653.577 29.05C654.077 29.5 654.686 29.725 655.402 29.725C656.469 29.725 657.211 29.275 657.627 28.375H662.177C661.944 29.2917 661.519 30.1167 660.902 30.85C660.302 31.5833 659.544 32.1583 658.627 32.575C657.711 32.9917 656.686 33.2 655.552 33.2C654.186 33.2 652.969 32.9083 651.902 32.325C650.836 31.7417 650.002 30.9083 649.402 29.825C648.802 28.7417 648.502 27.475 648.502 26.025C648.502 24.575 648.794 23.3083 649.377 22.225C649.977 21.1417 650.811 20.3083 651.877 19.725C652.944 19.1417 654.169 18.85 655.552 18.85C656.902 18.85 658.102 19.1333 659.152 19.7C660.202 20.2667 661.019 21.075 661.602 22.125C662.202 23.175 662.502 24.4 662.502 25.8ZM658.127 24.675C658.127 23.9417 657.877 23.3583 657.377 22.925C656.877 22.4917 656.252 22.275 655.502 22.275C654.786 22.275 654.177 22.4833 653.677 22.9C653.194 23.3167 652.894 23.9083 652.777 24.675H658.127ZM669.033 21.375C669.533 20.6083 670.158 20.0083 670.908 19.575C671.658 19.125 672.491 18.9 673.408 18.9V23.425H672.233C671.166 23.425 670.366 23.6583 669.833 24.125C669.299 24.575 669.033 25.375 669.033 26.525V33H664.758V19.05H669.033V21.375ZM680.751 18.85C681.734 18.85 682.593 19.05 683.326 19.45C684.076 19.85 684.651 20.375 685.051 21.025V19.05H689.326V32.975C689.326 34.2583 689.068 35.4167 688.551 36.45C688.051 37.5 687.276 38.3333 686.226 38.95C685.193 39.5667 683.901 39.875 682.351 39.875C680.284 39.875 678.609 39.3833 677.326 38.4C676.043 37.4333 675.309 36.1167 675.126 34.45H679.351C679.484 34.9833 679.801 35.4 680.301 35.7C680.801 36.0167 681.418 36.175 682.151 36.175C683.034 36.175 683.734 35.9167 684.251 35.4C684.784 34.9 685.051 34.0917 685.051 32.975V31C684.634 31.65 684.059 32.1833 683.326 32.6C682.593 33 681.734 33.2 680.751 33.2C679.601 33.2 678.559 32.9083 677.626 32.325C676.693 31.725 675.951 30.8833 675.401 29.8C674.868 28.7 674.601 27.4333 674.601 26C674.601 24.5667 674.868 23.3083 675.401 22.225C675.951 21.1417 676.693 20.3083 677.626 19.725C678.559 19.1417 679.601 18.85 680.751 18.85ZM685.051 26.025C685.051 24.9583 684.751 24.1167 684.151 23.5C683.568 22.8833 682.851 22.575 682.001 22.575C681.151 22.575 680.426 22.8833 679.826 23.5C679.243 24.1 678.951 24.9333 678.951 26C678.951 27.0667 679.243 27.9167 679.826 28.55C680.426 29.1667 681.151 29.475 682.001 29.475C682.851 29.475 683.568 29.1667 684.151 28.55C684.751 27.9333 685.051 27.0917 685.051 26.025ZM694.569 17.6C693.819 17.6 693.202 17.3833 692.719 16.95C692.252 16.5 692.019 15.95 692.019 15.3C692.019 14.6333 692.252 14.0833 692.719 13.65C693.202 13.2 693.819 12.975 694.569 12.975C695.302 12.975 695.902 13.2 696.369 13.65C696.852 14.0833 697.094 14.6333 697.094 15.3C697.094 15.95 696.852 16.5 696.369 16.95C695.902 17.3833 695.302 17.6 694.569 17.6ZM696.694 19.05V33H692.419V19.05H696.694ZM712.942 25.8C712.942 26.2 712.917 26.6167 712.867 27.05H703.192C703.258 27.9167 703.533 28.5833 704.017 29.05C704.517 29.5 705.125 29.725 705.842 29.725C706.908 29.725 707.65 29.275 708.067 28.375H712.617C712.383 29.2917 711.958 30.1167 711.342 30.85C710.742 31.5833 709.983 32.1583 709.067 32.575C708.15 32.9917 707.125 33.2 705.992 33.2C704.625 33.2 703.408 32.9083 702.342 32.325C701.275 31.7417 700.442 30.9083 699.842 29.825C699.242 28.7417 698.942 27.475 698.942 26.025C698.942 24.575 699.233 23.3083 699.817 22.225C700.417 21.1417 701.25 20.3083 702.317 19.725C703.383 19.1417 704.608 18.85 705.992 18.85C707.342 18.85 708.542 19.1333 709.592 19.7C710.642 20.2667 711.458 21.075 712.042 22.125C712.642 23.175 712.942 24.4 712.942 25.8ZM708.567 24.675C708.567 23.9417 708.317 23.3583 707.817 22.925C707.317 22.4917 706.692 22.275 705.942 22.275C705.225 22.275 704.617 22.4833 704.117 22.9C703.633 23.3167 703.333 23.9083 703.217 24.675H708.567ZM729.097 16.3C731.064 16.3 732.78 16.675 734.247 17.425C735.714 18.1583 736.839 19.2 737.622 20.55C738.422 21.8833 738.822 23.425 738.822 25.175C738.822 26.5917 738.572 27.9083 738.072 29.125C737.589 30.3417 736.864 31.3167 735.897 32.05C734.947 32.7667 733.814 33.125 732.497 33.125C731.614 33.125 730.88 32.95 730.297 32.6C729.73 32.25 729.347 31.7583 729.147 31.125C728.68 31.775 728.08 32.2833 727.347 32.65C726.614 33 725.814 33.175 724.947 33.175C723.714 33.175 722.739 32.8083 722.022 32.075C721.322 31.325 720.972 30.3083 720.972 29.025C720.972 27.8083 721.222 26.6667 721.722 25.6C722.222 24.5167 722.914 23.65 723.797 23C724.68 22.35 725.672 22.025 726.772 22.025C728.172 22.025 729.122 22.525 729.622 23.525L729.847 22.2H733.297L732.197 28.475C732.147 28.775 732.122 29.0417 732.122 29.275C732.122 30.0083 732.447 30.375 733.097 30.375C733.897 30.375 734.505 29.8667 734.922 28.85C735.355 27.8167 735.572 26.6333 735.572 25.3C735.572 23.3833 734.964 21.8833 733.747 20.8C732.547 19.7167 730.855 19.175 728.672 19.175C726.805 19.175 725.105 19.625 723.572 20.525C722.055 21.425 720.864 22.6583 719.997 24.225C719.13 25.775 718.697 27.4833 718.697 29.35C718.697 31.3667 719.28 32.9333 720.447 34.05C721.63 35.1667 723.28 35.725 725.397 35.725C727.047 35.725 728.522 35.425 729.822 34.825L730.497 37.55C728.864 38.2667 727.03 38.625 724.997 38.625C723.097 38.625 721.422 38.2583 719.972 37.525C718.539 36.7917 717.43 35.75 716.647 34.4C715.864 33.05 715.472 31.475 715.472 29.675C715.472 27.1583 716.064 24.8833 717.247 22.85C718.43 20.8 720.055 19.2 722.122 18.05C724.205 16.8833 726.53 16.3 729.097 16.3ZM726.347 30.1C726.814 30.1 727.247 29.9583 727.647 29.675C728.064 29.3917 728.389 29.0167 728.622 28.55C728.872 28.0667 728.997 27.55 728.997 27C728.997 26.4333 728.839 25.975 728.522 25.625C728.205 25.2583 727.772 25.075 727.222 25.075C726.489 25.075 725.88 25.3917 725.397 26.025C724.914 26.6583 724.672 27.4083 724.672 28.275C724.672 28.825 724.814 29.2667 725.097 29.6C725.38 29.9333 725.797 30.1 726.347 30.1ZM755.349 25.8C755.349 26.2 755.324 26.6167 755.274 27.05H745.599C745.666 27.9167 745.941 28.5833 746.424 29.05C746.924 29.5 747.532 29.725 748.249 29.725C749.316 29.725 750.057 29.275 750.474 28.375H755.024C754.791 29.2917 754.366 30.1167 753.749 30.85C753.149 31.5833 752.391 32.1583 751.474 32.575C750.557 32.9917 749.532 33.2 748.399 33.2C747.032 33.2 745.816 32.9083 744.749 32.325C743.682 31.7417 742.849 30.9083 742.249 29.825C741.649 28.7417 741.349 27.475 741.349 26.025C741.349 24.575 741.641 23.3083 742.224 22.225C742.824 21.1417 743.657 20.3083 744.724 19.725C745.791 19.1417 747.016 18.85 748.399 18.85C749.749 18.85 750.949 19.1333 751.999 19.7C753.049 20.2667 753.866 21.075 754.449 22.125C755.049 23.175 755.349 24.4 755.349 25.8ZM750.974 24.675C750.974 23.9417 750.724 23.3583 750.224 22.925C749.724 22.4917 749.099 22.275 748.349 22.275C747.632 22.275 747.024 22.4833 746.524 22.9C746.041 23.3167 745.741 23.9083 745.624 24.675H750.974ZM765.379 29.375V33H763.204C761.654 33 760.446 32.625 759.579 31.875C758.713 31.1083 758.279 29.8667 758.279 28.15V22.6H756.579V19.05H758.279V15.65H762.554V19.05H765.354V22.6H762.554V28.2C762.554 28.6167 762.654 28.9167 762.854 29.1C763.054 29.2833 763.388 29.375 763.854 29.375H765.379ZM773.435 33.2C772.219 33.2 771.135 32.9917 770.185 32.575C769.235 32.1583 768.485 31.5917 767.935 30.875C767.385 30.1417 767.077 29.325 767.01 28.425H771.235C771.285 28.9083 771.51 29.3 771.91 29.6C772.31 29.9 772.802 30.05 773.385 30.05C773.919 30.05 774.327 29.95 774.61 29.75C774.91 29.5333 775.06 29.2583 775.06 28.925C775.06 28.525 774.852 28.2333 774.435 28.05C774.019 27.85 773.344 27.6333 772.41 27.4C771.41 27.1667 770.577 26.925 769.91 26.675C769.244 26.4083 768.669 26 768.185 25.45C767.702 24.8833 767.46 24.125 767.46 23.175C767.46 22.375 767.677 21.65 768.11 21C768.56 20.3333 769.21 19.8083 770.06 19.425C770.927 19.0417 771.952 18.85 773.135 18.85C774.885 18.85 776.26 19.2833 777.26 20.15C778.277 21.0167 778.86 22.1667 779.01 23.6H775.06C774.994 23.1167 774.777 22.7333 774.41 22.45C774.06 22.1667 773.594 22.025 773.01 22.025C772.51 22.025 772.127 22.125 771.86 22.325C771.594 22.5083 771.46 22.7667 771.46 23.1C771.46 23.5 771.669 23.8 772.085 24C772.519 24.2 773.185 24.4 774.085 24.6C775.119 24.8667 775.96 25.1333 776.61 25.4C777.26 25.65 777.827 26.0667 778.31 26.65C778.81 27.2167 779.069 27.9833 779.085 28.95C779.085 29.7667 778.852 30.5 778.385 31.15C777.935 31.7833 777.277 32.2833 776.41 32.65C775.56 33.0167 774.569 33.2 773.435 33.2ZM785.976 14.5V33H781.701V14.5H785.976ZM802.224 25.8C802.224 26.2 802.199 26.6167 802.149 27.05H792.474C792.541 27.9167 792.816 28.5833 793.299 29.05C793.799 29.5 794.407 29.725 795.124 29.725C796.191 29.725 796.932 29.275 797.349 28.375H801.899C801.666 29.2917 801.241 30.1167 800.624 30.85C800.024 31.5833 799.266 32.1583 798.349 32.575C797.432 32.9917 796.407 33.2 795.274 33.2C793.907 33.2 792.691 32.9083 791.624 32.325C790.557 31.7417 789.724 30.9083 789.124 29.825C788.524 28.7417 788.224 27.475 788.224 26.025C788.224 24.575 788.516 23.3083 789.099 22.225C789.699 21.1417 790.532 20.3083 791.599 19.725C792.666 19.1417 793.891 18.85 795.274 18.85C796.624 18.85 797.824 19.1333 798.874 19.7C799.924 20.2667 800.741 21.075 801.324 22.125C801.924 23.175 802.224 24.4 802.224 25.8ZM797.849 24.675C797.849 23.9417 797.599 23.3583 797.099 22.925C796.599 22.4917 795.974 22.275 795.224 22.275C794.507 22.275 793.899 22.4833 793.399 22.9C792.916 23.3167 792.616 23.9083 792.499 24.675H797.849ZM810.754 29L813.779 19.05H818.329L813.379 33H808.104L803.154 19.05H807.729L810.754 29ZM822.279 17.6C821.529 17.6 820.912 17.3833 820.429 16.95C819.962 16.5 819.729 15.95 819.729 15.3C819.729 14.6333 819.962 14.0833 820.429 13.65C820.912 13.2 821.529 12.975 822.279 12.975C823.012 12.975 823.612 13.2 824.079 13.65C824.562 14.0833 824.804 14.6333 824.804 15.3C824.804 15.95 824.562 16.5 824.079 16.95C823.612 17.3833 823.012 17.6 822.279 17.6ZM824.404 19.05V33H820.129V19.05H824.404ZM836.002 18.9C837.635 18.9 838.935 19.4333 839.902 20.5C840.885 21.55 841.377 23 841.377 24.85V33H837.127V25.425C837.127 24.4917 836.885 23.7667 836.402 23.25C835.918 22.7333 835.268 22.475 834.452 22.475C833.635 22.475 832.985 22.7333 832.502 23.25C832.018 23.7667 831.777 24.4917 831.777 25.425V33H827.502V19.05H831.777V20.9C832.21 20.2833 832.793 19.8 833.527 19.45C834.26 19.0833 835.085 18.9 836.002 18.9ZM857.497 25.8C857.497 26.2 857.472 26.6167 857.422 27.05H847.747C847.814 27.9167 848.089 28.5833 848.572 29.05C849.072 29.5 849.681 29.725 850.397 29.725C851.464 29.725 852.206 29.275 852.622 28.375H857.172C856.939 29.2917 856.514 30.1167 855.897 30.85C855.297 31.5833 854.539 32.1583 853.622 32.575C852.706 32.9917 851.681 33.2 850.547 33.2C849.181 33.2 847.964 32.9083 846.897 32.325C845.831 31.7417 844.997 30.9083 844.397 29.825C843.797 28.7417 843.497 27.475 843.497 26.025C843.497 24.575 843.789 23.3083 844.372 22.225C844.972 21.1417 845.806 20.3083 846.872 19.725C847.939 19.1417 849.164 18.85 850.547 18.85C851.897 18.85 853.097 19.1333 854.147 19.7C855.197 20.2667 856.014 21.075 856.597 22.125C857.197 23.175 857.497 24.4 857.497 25.8ZM853.122 24.675C853.122 23.9417 852.872 23.3583 852.372 22.925C851.872 22.4917 851.247 22.275 850.497 22.275C849.781 22.275 849.172 22.4833 848.672 22.9C848.189 23.3167 847.889 23.9083 847.772 24.675H853.122ZM868.253 18.9C869.886 18.9 871.186 19.4333 872.153 20.5C873.136 21.55 873.628 23 873.628 24.85V33H869.378V25.425C869.378 24.4917 869.136 23.7667 868.653 23.25C868.169 22.7333 867.519 22.475 866.703 22.475C865.886 22.475 865.236 22.7333 864.753 23.25C864.269 23.7667 864.028 24.4917 864.028 25.425V33H859.753V19.05H864.028V20.9C864.461 20.2833 865.044 19.8 865.778 19.45C866.511 19.0833 867.336 18.9 868.253 18.9ZM889.748 25.8C889.748 26.2 889.723 26.6167 889.673 27.05H879.998C880.065 27.9167 880.34 28.5833 880.823 29.05C881.323 29.5 881.932 29.725 882.648 29.725C883.715 29.725 884.457 29.275 884.873 28.375H889.423C889.19 29.2917 888.765 30.1167 888.148 30.85C887.548 31.5833 886.79 32.1583 885.873 32.575C884.957 32.9917 883.932 33.2 882.798 33.2C881.432 33.2 880.215 32.9083 879.148 32.325C878.082 31.7417 877.248 30.9083 876.648 29.825C876.048 28.7417 875.748 27.475 875.748 26.025C875.748 24.575 876.04 23.3083 876.623 22.225C877.223 21.1417 878.057 20.3083 879.123 19.725C880.19 19.1417 881.415 18.85 882.798 18.85C884.148 18.85 885.348 19.1333 886.398 19.7C887.448 20.2667 888.265 21.075 888.848 22.125C889.448 23.175 889.748 24.4 889.748 25.8ZM885.373 24.675C885.373 23.9417 885.123 23.3583 884.623 22.925C884.123 22.4917 883.498 22.275 882.748 22.275C882.032 22.275 881.423 22.4833 880.923 22.9C880.44 23.3167 880.14 23.9083 880.023 24.675H885.373ZM896.279 21.375C896.779 20.6083 897.404 20.0083 898.154 19.575C898.904 19.125 899.737 18.9 900.654 18.9V23.425H899.479C898.412 23.425 897.612 23.6583 897.079 24.125C896.545 24.575 896.279 25.375 896.279 26.525V33H892.004V19.05H896.279V21.375ZM907.997 18.85C908.98 18.85 909.839 19.05 910.572 19.45C911.322 19.85 911.897 20.375 912.297 21.025V19.05H916.572V32.975C916.572 34.2583 916.314 35.4167 915.797 36.45C915.297 37.5 914.522 38.3333 913.472 38.95C912.439 39.5667 911.147 39.875 909.597 39.875C907.53 39.875 905.855 39.3833 904.572 38.4C903.289 37.4333 902.555 36.1167 902.372 34.45H906.597C906.73 34.9833 907.047 35.4 907.547 35.7C908.047 36.0167 908.664 36.175 909.397 36.175C910.28 36.175 910.98 35.9167 911.497 35.4C912.03 34.9 912.297 34.0917 912.297 32.975V31C911.88 31.65 911.305 32.1833 910.572 32.6C909.839 33 908.98 33.2 907.997 33.2C906.847 33.2 905.805 32.9083 904.872 32.325C903.939 31.725 903.197 30.8833 902.647 29.8C902.114 28.7 901.847 27.4333 901.847 26C901.847 24.5667 902.114 23.3083 902.647 22.225C903.197 21.1417 903.939 20.3083 904.872 19.725C905.805 19.1417 906.847 18.85 907.997 18.85ZM912.297 26.025C912.297 24.9583 911.997 24.1167 911.397 23.5C910.814 22.8833 910.097 22.575 909.247 22.575C908.397 22.575 907.672 22.8833 907.072 23.5C906.489 24.1 906.197 24.9333 906.197 26C906.197 27.0667 906.489 27.9167 907.072 28.55C907.672 29.1667 908.397 29.475 909.247 29.475C910.097 29.475 910.814 29.1667 911.397 28.55C911.997 27.9333 912.297 27.0917 912.297 26.025ZM921.815 17.6C921.065 17.6 920.448 17.3833 919.965 16.95C919.498 16.5 919.265 15.95 919.265 15.3C919.265 14.6333 919.498 14.0833 919.965 13.65C920.448 13.2 921.065 12.975 921.815 12.975C922.548 12.975 923.148 13.2 923.615 13.65C924.098 14.0833 924.34 14.6333 924.34 15.3C924.34 15.95 924.098 16.5 923.615 16.95C923.148 17.3833 922.548 17.6 921.815 17.6ZM923.94 19.05V33H919.665V19.05H923.94ZM940.188 25.8C940.188 26.2 940.163 26.6167 940.113 27.05H930.438C930.504 27.9167 930.779 28.5833 931.263 29.05C931.763 29.5 932.371 29.725 933.088 29.725C934.154 29.725 934.896 29.275 935.313 28.375H939.863C939.629 29.2917 939.204 30.1167 938.588 30.85C937.988 31.5833 937.229 32.1583 936.313 32.575C935.396 32.9917 934.371 33.2 933.238 33.2C931.871 33.2 930.654 32.9083 929.588 32.325C928.521 31.7417 927.688 30.9083 927.088 29.825C926.488 28.7417 926.188 27.475 926.188 26.025C926.188 24.575 926.479 23.3083 927.063 22.225C927.663 21.1417 928.496 20.3083 929.563 19.725C930.629 19.1417 931.854 18.85 933.238 18.85C934.588 18.85 935.788 19.1333 936.838 19.7C937.888 20.2667 938.704 21.075 939.288 22.125C939.888 23.175 940.188 24.4 940.188 25.8ZM935.813 24.675C935.813 23.9417 935.563 23.3583 935.063 22.925C934.563 22.4917 933.938 22.275 933.188 22.275C932.471 22.275 931.863 22.4833 931.363 22.9C930.879 23.3167 930.579 23.9083 930.463 24.675H935.813ZM944.443 33.2C943.693 33.2 943.076 32.9833 942.593 32.55C942.126 32.1 941.893 31.55 941.893 30.9C941.893 30.2333 942.126 29.675 942.593 29.225C943.076 28.775 943.693 28.55 944.443 28.55C945.176 28.55 945.776 28.775 946.243 29.225C946.726 29.675 946.968 30.2333 946.968 30.9C946.968 31.55 946.726 32.1 946.243 32.55C945.776 32.9833 945.176 33.2 944.443 33.2ZM948.649 26.025C948.649 24.575 948.94 23.3083 949.524 22.225C950.124 21.1417 950.949 20.3083 951.999 19.725C953.065 19.1417 954.282 18.85 955.649 18.85C957.399 18.85 958.857 19.3083 960.024 20.225C961.207 21.1417 961.982 22.4333 962.349 24.1H957.799C957.415 23.0333 956.674 22.5 955.574 22.5C954.79 22.5 954.165 22.8083 953.699 23.425C953.232 24.025 952.999 24.8917 952.999 26.025C952.999 27.1583 953.232 28.0333 953.699 28.65C954.165 29.25 954.79 29.55 955.574 29.55C956.674 29.55 957.415 29.0167 957.799 27.95H962.349C961.982 29.5833 961.207 30.8667 960.024 31.8C958.84 32.7333 957.382 33.2 955.649 33.2C954.282 33.2 953.065 32.9083 951.999 32.325C950.949 31.7417 950.124 30.9083 949.524 29.825C948.94 28.7417 948.649 27.475 948.649 26.025ZM970.985 33.2C969.619 33.2 968.385 32.9083 967.285 32.325C966.202 31.7417 965.344 30.9083 964.71 29.825C964.094 28.7417 963.785 27.475 963.785 26.025C963.785 24.5917 964.102 23.3333 964.735 22.25C965.369 21.15 966.235 20.3083 967.335 19.725C968.435 19.1417 969.669 18.85 971.035 18.85C972.402 18.85 973.635 19.1417 974.735 19.725C975.835 20.3083 976.702 21.15 977.335 22.25C977.969 23.3333 978.285 24.5917 978.285 26.025C978.285 27.4583 977.96 28.725 977.31 29.825C976.677 30.9083 975.802 31.7417 974.685 32.325C973.585 32.9083 972.352 33.2 970.985 33.2ZM970.985 29.5C971.802 29.5 972.494 29.2 973.06 28.6C973.644 28 973.935 27.1417 973.935 26.025C973.935 24.9083 973.652 24.05 973.085 23.45C972.535 22.85 971.852 22.55 971.035 22.55C970.202 22.55 969.51 22.85 968.96 23.45C968.41 24.0333 968.135 24.8917 968.135 26.025C968.135 27.1417 968.402 28 968.935 28.6C969.485 29.2 970.169 29.5 970.985 29.5ZM998.353 18.9C1000.09 18.9 1001.46 19.425 1002.48 20.475C1003.51 21.525 1004.03 22.9833 1004.03 24.85V33H999.778V25.425C999.778 24.525 999.537 23.8333 999.053 23.35C998.587 22.85 997.937 22.6 997.103 22.6C996.27 22.6 995.612 22.85 995.128 23.35C994.662 23.8333 994.428 24.525 994.428 25.425V33H990.178V25.425C990.178 24.525 989.937 23.8333 989.453 23.35C988.987 22.85 988.337 22.6 987.503 22.6C986.67 22.6 986.012 22.85 985.528 23.35C985.062 23.8333 984.828 24.525 984.828 25.425V33H980.553V19.05H984.828V20.8C985.262 20.2167 985.828 19.7583 986.528 19.425C987.228 19.075 988.02 18.9 988.903 18.9C989.953 18.9 990.887 19.125 991.703 19.575C992.537 20.025 993.187 20.6667 993.653 21.5C994.137 20.7333 994.795 20.1083 995.628 19.625C996.462 19.1417 997.37 18.9 998.353 18.9Z" fill="url(#paint1_linear_185_3)"/>
<defs>
<linearGradient id="paint0_linear_185_3" x1="0" y1="28" x2="358" y2="28" gradientUnits="userSpaceOnUse">
<stop stop-color="#18AA00"/>
<stop offset="1" stop-color="#3E04E4"/>
</linearGradient>
<linearGradient id="paint1_linear_185_3" x1="433" y1="24" x2="1018" y2="24" gradientUnits="userSpaceOnUse">
<stop stop-color="#18AA00"/>
<stop offset="1" stop-color="#3E04E4"/>
</linearGradient>
<clipPath id="clip0_185_3">
<rect width="43" height="43" fill="white" transform="translate(25 6)"/>
</clipPath>
</defs>
</svg>
